<?xml version="1.0" encoding="UTF-8" standalone="no"?>
<svg
   xmlns:dc="http://purl.org/dc/elements/1.1/"
   xmlns:cc="http://creativecommons.org/ns#"
   xmlns:rdf="http://www.w3.org/1999/02/22-rdf-syntax-ns#"
   xmlns:svg="http://www.w3.org/2000/svg"
   xmlns="http://www.w3.org/2000/svg"
   xmlns:sodipodi="http://sodipodi.sourceforge.net/DTD/sodipodi-0.dtd"
   xmlns:inkscape="http://www.inkscape.org/namespaces/inkscape"
   data-name="Layer 1"
   viewBox="0 0 88.438599 97.552879"
   x="0px"
   y="0px"
   version="1.1"
   id="svg10"
   sodipodi:docname="development_cc.svg"
   width="88.438599"
   height="97.552879"
   inkscape:version="0.92.2 (5c3e80d, 2017-08-06)">
  <metadata
     id="metadata16">
    <rdf:RDF>
      <cc:Work
         rdf:about="">
        <dc:format>image/svg+xml</dc:format>
        <dc:type
           rdf:resource="http://purl.org/dc/dcmitype/StillImage" />
        <dc:title>Artboard 13</dc:title>
      </cc:Work>
    </rdf:RDF>
  </metadata>
  <defs
     id="defs14" />
  <sodipodi:namedview
     pagecolor="#ffffff"
     bordercolor="#666666"
     borderopacity="1"
     objecttolerance="10"
     gridtolerance="10"
     guidetolerance="10"
     inkscape:pageopacity="0"
     inkscape:pageshadow="2"
     inkscape:window-width="1600"
     inkscape:window-height="1137"
     id="namedview12"
     showgrid="false"
     inkscape:zoom="5.3400704"
     inkscape:cx="45.095672"
     inkscape:cy="35.587861"
     inkscape:window-x="-8"
     inkscape:window-y="-8"
     inkscape:window-maximized="1"
     inkscape:current-layer="svg10" />
  <title
     id="title2">Artboard 13</title>
  <path
     d="m 45.3193,81.236439 v 3.13 a 35.6,35.6 0 0 0 15.42,-67.11 0.73,0.73 0 0 1 -0.07,-1.26 l 6.49,-4.22 a 1.16,1.16 0 0 1 1.27,0 44.24,44.24 0 0 1 -23.11,81.24 v 3.18 a 1.34,1.34 0 0 1 -2.1,1.12 l -11.45,-7.48 a 1.34,1.34 0 0 1 0,-2.24 l 11.45,-7.48 a 1.34,1.34 0 0 1 2.07,1.12 z m 11.35,-73.5199999 -11.45,-7.48000002 a 1.34,1.34 0 0 0 -2.1,1.12000002 v 3.18 a 44.24,44.24 0 0 0 -23.11,81.2399999 1.16,1.16 0 0 0 1.27,0 l 6.49,-4.23 a 0.73,0.73 0 0 0 -0.07,-1.26 35.6,35.6 0 0 1 15.42,-67.1 v 3.13 a 1.34,1.34 0 0 0 2.1,1.12 l 11.49,-7.4799999 a 1.34,1.34 0 0 0 0,-2.24 z m -12.45,34.7399999 a 6.32,6.32 0 1 0 6.32,6.32 6.33,6.33 0 0 0 -6.32,-6.32 z m 18.1,-14.24 2.46,2.46 a 3.15,3.15 0 0 1 0.35,4 l -2.39,3.41 a 21.17,21.17 0 0 1 2.12,5.1 l 4.1,0.72 a 3.15,3.15 0 0 1 2.61,3.1 v 3.47 a 3.15,3.15 0 0 1 -2.61,3.1 l -4.09,0.72 a 21.2,21.2 0 0 1 -2.12,5.1 l 2.39,3.41 a 3.15,3.15 0 0 1 -0.35,4 l -2.47,2.53 a 3.15,3.15 0 0 1 -4,0.35 l -3.41,-2.39 a 21.26,21.26 0 0 1 -5.1,2.12 l -0.72,4.09 a 3.15,3.15 0 0 1 -3.1,2.61 h -3.51 a 3.15,3.15 0 0 1 -3.1,-2.61 l -0.72,-4.09 a 21.26,21.26 0 0 1 -5.1,-2.12 l -3.41,2.39 a 3.15,3.15 0 0 1 -4,-0.35 l -2.49,-2.46 a 3.15,3.15 0 0 1 -0.35,-4 l 2.39,-3.41 a 21.22,21.22 0 0 1 -2.12,-5.1 l -4.09,-0.72 a 3.15,3.15 0 0 1 -2.61,-3.1 v -3.51 a 3.15,3.15 0 0 1 2.61,-3.1 l 4.1,-0.72 a 21.19,21.19 0 0 1 2.12,-5.1 l -2.39,-3.41 a 3.15,3.15 0 0 1 0.35,-4 l 2.46,-2.46 a 3.15,3.15 0 0 1 4,-0.35 l 3.41,2.39 a 21.26,21.26 0 0 1 5.1,-2.12 l 0.72,-4.09 a 3.15,3.15 0 0 1 3.1,-2.61 h 3.48 a 3.15,3.15 0 0 1 3.1,2.61 l 0.72,4.09 a 21.25,21.25 0 0 1 5.1,2.12 l 3.41,-2.39 a 3.15,3.15 0 0 1 4.05,0.32 z m -6.05,20.56 a 12.05,12.05 0 1 0 -12.05,12.05 12.06,12.06 0 0 0 12.05,-12.05 z"
     id="path4"
     inkscape:connector-curvature="0" />
</svg>
