<?xml version="1.0" encoding="UTF-8" standalone="no"?>
<svg
   xmlns:dc="http://purl.org/dc/elements/1.1/"
   xmlns:cc="http://creativecommons.org/ns#"
   xmlns:rdf="http://www.w3.org/1999/02/22-rdf-syntax-ns#"
   xmlns:svg="http://www.w3.org/2000/svg"
   xmlns="http://www.w3.org/2000/svg"
   xmlns:sodipodi="http://sodipodi.sourceforge.net/DTD/sodipodi-0.dtd"
   xmlns:inkscape="http://www.inkscape.org/namespaces/inkscape"
   version="1.1"
   x="0px"
   y="0px"
   viewBox="0 0 51.401829 85.199997"
   xml:space="preserve"
   id="svg10"
   sodipodi:docname="graphic_design_cc.svg"
   width="51.401829"
   height="85.199997"
   inkscape:version="0.92.2 (5c3e80d, 2017-08-06)"><metadata
     id="metadata16"><rdf:RDF><cc:Work
         rdf:about=""><dc:format>image/svg+xml</dc:format><dc:type
           rdf:resource="http://purl.org/dc/dcmitype/StillImage" /><dc:title></dc:title></cc:Work></rdf:RDF></metadata><defs
     id="defs14" /><sodipodi:namedview
     pagecolor="#ffffff"
     bordercolor="#666666"
     borderopacity="1"
     objecttolerance="10"
     gridtolerance="10"
     guidetolerance="10"
     inkscape:pageopacity="0"
     inkscape:pageshadow="2"
     inkscape:window-width="1207"
     inkscape:window-height="823"
     id="namedview12"
     showgrid="false"
     inkscape:zoom="1.888"
     inkscape:cx="25.659375"
     inkscape:cy="30.1"
     inkscape:window-x="0"
     inkscape:window-y="0"
     inkscape:window-maximized="0"
     inkscape:current-layer="svg10" /><g
     id="g4"
     transform="translate(-24.340625,-7.4)"><path
       d="M 75.2,52.1 65.3,31.4 C 69,31.3 72,28.2 72,24.4 v -6 C 72,12.3 67.1,7.4 61,7.4 H 39 c -6.1,0 -11,4.9 -11,11 v 6 c 0,3.8 3,6.8 6.7,7 l -9.9,20.7 c -0.7,1.5 -0.6,3.3 0.3,4.8 l 20.7,33.3 c 0.9,1.5 2.5,2.4 4.2,2.4 0,0 0,0 0,0 1.7,0 3.3,-0.9 4.2,-2.4 L 75,56.9 c 0.9,-1.5 1,-3.2 0.2,-4.8 z M 34,24.4 v -6 c 0,-2.8 2.2,-5 5,-5 h 22 c 2.8,0 5,2.2 5,5 v 6 c 0,0.6 -0.4,1 -1,1 H 35 c -0.6,0 -1,-0.5 -1,-1 z m 16,33 c -2.2,0 -4,-1.8 -4,-4 0,-2.2 1.8,-4 4,-4 2.2,0 4,1.8 4,4 0,2.2 -1.8,4 -4,4 z m 3,23.5 v -18 c 4.1,-1.3 7,-5.1 7,-9.5 0,-5.5 -4.5,-10 -10,-10 -5.5,0 -10,4.5 -10,10 0,4.5 2.9,8.3 7,9.5 v 18 L 30.4,54.2 41.4,31.4 h 17.3 l 11,22.8 z"
       id="path2"
       inkscape:connector-curvature="0" /></g></svg>