<?xml version="1.0" encoding="UTF-8" standalone="no"?>
<svg
   xmlns:dc="http://purl.org/dc/elements/1.1/"
   xmlns:cc="http://creativecommons.org/ns#"
   xmlns:rdf="http://www.w3.org/1999/02/22-rdf-syntax-ns#"
   xmlns:svg="http://www.w3.org/2000/svg"
   xmlns="http://www.w3.org/2000/svg"
   xmlns:sodipodi="http://sodipodi.sourceforge.net/DTD/sodipodi-0.dtd"
   xmlns:inkscape="http://www.inkscape.org/namespaces/inkscape"
   viewBox="0 0 32 29"
   x="0px"
   y="0px"
   version="1.1"
   id="svg14"
   sodipodi:docname="graphic_design_cc.svg"
   width="32"
   height="29"
   inkscape:version="0.92.2 (5c3e80d, 2017-08-06)">
  <metadata
     id="metadata20">
    <rdf:RDF>
      <cc:Work
         rdf:about="">
        <dc:format>image/svg+xml</dc:format>
        <dc:type
           rdf:resource="http://purl.org/dc/dcmitype/StillImage" />
        <dc:title>24-Vector Graphic</dc:title>
      </cc:Work>
    </rdf:RDF>
  </metadata>
  <defs
     id="defs18" />
  <sodipodi:namedview
     pagecolor="#ffffff"
     bordercolor="#666666"
     borderopacity="1"
     objecttolerance="10"
     gridtolerance="10"
     guidetolerance="10"
     inkscape:pageopacity="0"
     inkscape:pageshadow="2"
     inkscape:window-width="640"
     inkscape:window-height="480"
     id="namedview16"
     showgrid="false"
     inkscape:zoom="5.9"
     inkscape:cx="16"
     inkscape:cy="17.779661"
     inkscape:window-x="0"
     inkscape:window-y="0"
     inkscape:window-maximized="0"
     inkscape:current-layer="svg14" />
  <title
     id="title2">24-Vector Graphic</title>
  <g
     data-name="24-Vector Graphic"
     id="g8"
     transform="translate(0,-2)">
    <path
       d="M 31,2 H 27 A 1,1 0 0 0 26,3 V 4 H 19 V 3 A 1,1 0 0 0 18,2 H 14 A 1,1 0 0 0 13,3 V 4 H 6 V 3 A 1,1 0 0 0 5,2 H 1 A 1,1 0 0 0 0,3 V 7 A 1,1 0 0 0 1,8 H 5 A 1,1 0 0 0 6,7 V 6 h 7 v 1 a 1,1 0 0 0 1,1 h 4 A 1,1 0 0 0 19,7 V 6.3 C 21.82,7 26.62,9.51 27,18 h -1 a 1,1 0 0 0 -1,1 v 4 a 1,1 0 0 0 1,1 h 4 a 1,1 0 0 0 1,-1 V 19 A 1,1 0 0 0 30,18 H 29 C 28.75,11.32 26,7.82 23.16,6 H 26 v 1 a 1,1 0 0 0 1,1 h 4 A 1,1 0 0 0 32,7 V 3 A 1,1 0 0 0 31,2 Z M 4,6 H 2 V 4 H 4 Z M 17,6 H 15 V 4 h 2 z m 10,14 h 2 v 2 H 27 Z M 30,6 H 28 V 4 h 2 z"
       id="path4"
       inkscape:connector-curvature="0" />
    <path
       d="m 9.89,9.55 a 1,1 0 0 0 -1.79,0 l -6,12 a 1,1 0 0 0 0.19,1.15 l 1.36,1.36 A 1,1 0 0 0 3,25 v 2 a 1,1 0 0 0 1,1 h 1 v 3 h 2 v -3 h 4 v 3 h 2 v -3 h 1 a 1,1 0 0 0 1,-1 v -2 a 1,1 0 0 0 -0.66,-0.93 l 1.36,-1.36 a 1,1 0 0 0 0.19,-1.15 z M 11.59,24 H 6.41 L 4.21,21.8 8,14.24 V 20 h 2 v -5.76 l 3.78,7.57 z"
       id="path6"
       inkscape:connector-curvature="0" />
  </g>
</svg>
