<?xml version="1.0" encoding="UTF-8" standalone="no"?>
<svg
   xmlns:dc="http://purl.org/dc/elements/1.1/"
   xmlns:cc="http://creativecommons.org/ns#"
   xmlns:rdf="http://www.w3.org/1999/02/22-rdf-syntax-ns#"
   xmlns:svg="http://www.w3.org/2000/svg"
   xmlns="http://www.w3.org/2000/svg"
   xmlns:sodipodi="http://sodipodi.sourceforge.net/DTD/sodipodi-0.dtd"
   xmlns:inkscape="http://www.inkscape.org/namespaces/inkscape"
   version="1.1"
   x="0px"
   y="0px"
   viewBox="0 0 60 58.200001"
   xml:space="preserve"
   id="svg8"
   sodipodi:docname="graphic_design_cc.svg"
   width="60"
   height="58.200001"
   inkscape:version="0.92.2 (5c3e80d, 2017-08-06)"><metadata
     id="metadata14"><rdf:RDF><cc:Work
         rdf:about=""><dc:format>image/svg+xml</dc:format><dc:type
           rdf:resource="http://purl.org/dc/dcmitype/StillImage" /><dc:title></dc:title></cc:Work></rdf:RDF></metadata><defs
     id="defs12" /><sodipodi:namedview
     pagecolor="#ffffff"
     bordercolor="#666666"
     borderopacity="1"
     objecttolerance="10"
     gridtolerance="10"
     guidetolerance="10"
     inkscape:pageopacity="0"
     inkscape:pageshadow="2"
     inkscape:window-width="686"
     inkscape:window-height="480"
     id="namedview10"
     showgrid="false"
     inkscape:zoom="1.888"
     inkscape:cx="30"
     inkscape:cy="16.6"
     inkscape:window-x="0"
     inkscape:window-y="0"
     inkscape:window-maximized="0"
     inkscape:current-layer="svg8" /><path
     d="m 8.7,6.1 h 10.8 c -4,2.4 -7,6.2 -8.6,10.6 h 3.2 c 1.7,-4.2 5.1,-7.6 9.3,-9.3 V 3.1 H 8.7 C 8.1,1.4 6.4,0.1 4.5,0.1 2,0.1 0,2.1 0,4.6 0,7.1 2,9.1 4.5,9.1 6.4,9.1 8,7.8 8.7,6.1 Z m -4.2,0 C 3.7,6.1 3,5.4 3,4.6 3,3.8 3.7,3.1 4.5,3.1 5.3,3.1 6,3.8 6,4.6 6,5.4 5.3,6.1 4.5,6.1 Z m 51,-5.9 c -1.9,0 -3.6,1.2 -4.2,3 H 36.6 v 4.3 c 4.2,1.7 7.6,5.1 9.3,9.3 h 3.2 C 47.6,12.3 44.5,8.6 40.5,6.2 h 10.8 c 0.6,1.7 2.3,3 4.2,3 C 58,9.2 60,7.2 60,4.7 60,2.2 58,0.2 55.5,0.2 Z m 0,5.9 C 54.7,6.1 54,5.4 54,4.6 54,3.8 54.7,3.1 55.5,3.1 56.3,3.1 57,3.8 57,4.6 57,5.4 56.3,6.1 55.5,6.1 Z M 43.2,35.9 c -9,-3.5 -11.7,-21.3 -11.7,-21.5 0,0 0,0 0,0 0,-0.2 -0.1,-0.3 -0.2,-0.5 0,0 0,0 0,-0.1 -0.1,-0.1 -0.2,-0.3 -0.3,-0.4 0,0 0,0 -0.1,0 -0.1,-0.1 -0.3,-0.2 -0.4,-0.2 0,0 0,0 0,0 -0.2,0 -0.3,-0.1 -0.5,-0.1 -0.2,0 -0.3,0 -0.5,0.1 0,0 0,0 0,0 -0.1,0.1 -0.3,0.1 -0.4,0.2 0,0 0,0 -0.1,0 -0.1,0.1 -0.2,0.2 -0.3,0.4 0,0 0,0 0,0.1 -0.1,0.1 -0.1,0.3 -0.2,0.4 0,0 0,0 0,0 0,0.2 -2.7,17.9 -11.7,21.5 -0.4,0.2 -0.8,0.5 -0.9,1 -0.1,0.5 -0.1,0.9 0.2,1.3 0.1,0.1 5.1,7.5 7.8,17.1 h -2.4 c -0.8,0 -1.5,0.7 -1.5,1.5 0,0.8 0.7,1.5 1.5,1.5 h 12.7 c 0,0 0,0 0,0 h 4.4 c 0.8,0 1.5,-0.7 1.5,-1.5 0,-0.8 -0.7,-1.5 -1.5,-1.5 h -2.4 c 2.7,-9.5 7.7,-17 7.8,-17.1 0.3,-0.4 0.3,-0.9 0.2,-1.3 C 44,36.4 43.6,36 43.2,35.9 Z M 30,41.1 c 1.1,0 1.9,0.9 1.9,1.9 0,1 -0.9,1.9 -1.9,1.9 -1,0 -1.9,-0.9 -1.9,-1.9 0,-1 0.8,-1.9 1.9,-1.9 z m 3,14.1 h -6 c -2.1,-7.9 -5.7,-14.5 -7.5,-17.3 4.3,-2.5 7.1,-7.4 9,-12 v 12.5 c -2,0.6 -3.4,2.5 -3.4,4.7 0,2.7 2.2,4.9 4.9,4.9 2.7,0 4.9,-2.2 4.9,-4.9 0,-2.2 -1.5,-4 -3.4,-4.7 V 25.8 c 1.8,4.7 4.7,9.6 9,12 -1.7,2.9 -5.4,9.5 -7.5,17.4 z m -6.1,-46 h 6.2 c 0.8,0 1.5,-0.7 1.5,-1.5 V 1.5 C 34.6,0.7 33.9,0 33.1,0 h -6.2 c -0.8,0 -1.5,0.7 -1.5,1.5 v 6.2 c 0,0.9 0.7,1.5 1.5,1.5 z M 28.4,3 h 3.2 V 6.2 H 28.4 Z M 15.9,20.3 c 0,-0.8 -0.7,-1.5 -1.5,-1.5 H 8.2 c -0.8,0 -1.5,0.7 -1.5,1.5 v 6.2 c 0,0.8 0.7,1.5 1.5,1.5 h 6.2 c 0.8,0 1.5,-0.7 1.5,-1.5 z m -3,4.7 H 9.7 v -3.2 h 3.2 z m 38.9,-6.2 h -6.2 c -0.8,0 -1.5,0.7 -1.5,1.5 v 6.2 c 0,0.8 0.7,1.5 1.5,1.5 h 6.2 c 0.8,0 1.5,-0.7 1.5,-1.5 v -6.2 c 0,-0.9 -0.6,-1.5 -1.5,-1.5 z M 50.3,25 h -3.2 v -3.2 h 3.2 z"
     id="path2"
     inkscape:connector-curvature="0" /></svg>